#Comment line ignore any data following # character 
#Hierarchical Translation and Rotation (.htr) file 
[Header]	
#Header keywords are followed by a single value 
FileType HTR		#Single word string
DataType HTRS		#Translation followed by rotation and scale data
FileVersion 1		#integer
NumSegments 84		#integer
NumFrames 2		#integer
DataFrameRate 30		#integer, data frame rate in this file
EulerRotationOrder ZYX
CalibrationUnits mm
RotationUnits Degrees
GlobalAxisofGravity Y
BoneLengthAxis Y
ScaleFactor 1.00
[SegmentNames&Hierarchy]
#CHILD	PARENT
MASTER GLOBAL
root MASTER
chest root
L_mid_tent01 root
R_mid_tent01 root
spine01 root
Bip01_Neck chest
L_humerus chest
R_humerus chest
weapon_bone chest
Bip01_Head Bip01_Neck
eye_left_bone Bip01_Head
eye_right_bone Bip01_Head
L_forearm L_humerus
L_front_hand L_forearm
L_weapon_bone L_forearm
L_front_hand01_01 L_front_hand
L_front_hand02_01 L_front_hand
L_front_hand03_01 L_front_hand
L_front_hand01_02 L_front_hand01_01
L_front_hand02_02 L_front_hand02_01
L_front_hand03_02 L_front_hand03_01
R_forearm R_humerus
R_front_hand R_forearm
R_weapon_bone R_forearm
R_front_hand01_01 R_front_hand
R_front_hand02_01 R_front_hand
R_front_hand03_01 R_front_hand
R_front_hand01_02 R_front_hand01_01
R_front_hand02_02 R_front_hand02_01
R_front_hand03_02 R_front_hand03_01
null_rope01_connect L_mid_tent01
Rope1_Seg01 null_rope01_connect
Rope1_Seg02 Rope1_Seg01
Rope1_Seg03 Rope1_Seg02
Rope1_Seg04 Rope1_Seg03
Rope1_Seg05 Rope1_Seg04
Rope1_Seg06 Rope1_Seg05
Rope1_Seg07 Rope1_Seg06
Rope1_Seg09 Rope1_Seg07
L_mid_hand01 Rope1_Seg09
L_mid_hand02 Rope1_Seg09
L_mid_hand03 Rope1_Seg09
null_rope02_connect R_mid_tent01
Rope2_Seg01 null_rope02_connect
Rope2_Seg02 Rope2_Seg01
Rope2_Seg03 Rope2_Seg02
Rope2_Seg04 Rope2_Seg03
Rope2_Seg05 Rope2_Seg04
Rope2_Seg06 Rope2_Seg05
Rope2_Seg07 Rope2_Seg06
Rope2_Seg09 Rope2_Seg07
R_mid_hand01 Rope2_Seg09
R_mid_hand02 Rope2_Seg09
R_mid_hand03 Rope2_Seg09
spine02 spine01
spine03 spine02
pelvis spine03
null_rope03_connect pelvis
null_rope04_connect pelvis
Rope3_Seg01 null_rope03_connect
Rope3_Seg02 Rope3_Seg01
Rope3_Seg03 Rope3_Seg02
Rope3_Seg04 Rope3_Seg03
Rope3_Seg05 Rope3_Seg04
Rope3_Seg06 Rope3_Seg05
Rope3_Seg07 Rope3_Seg06
Rope3_Seg08 Rope3_Seg07
Rope3_Seg09 Rope3_Seg08
R_rear_hand01 Rope3_Seg09
R_rear_hand02 Rope3_Seg09
R_rear_hand03 Rope3_Seg09
Rope4_Seg01 null_rope04_connect
Rope4_Seg02 Rope4_Seg01
Rope4_Seg03 Rope4_Seg02
Rope4_Seg04 Rope4_Seg03
Rope4_Seg05 Rope4_Seg04
Rope4_Seg06 Rope4_Seg05
Rope4_Seg07 Rope4_Seg06
Rope4_Seg08 Rope4_Seg07
Rope4_Seg09 Rope4_Seg08
L_rear_hand01 Rope4_Seg09
L_rear_hand02 Rope4_Seg09
L_rear_hand03 Rope4_Seg09
[BasePosition]
#SegmentName Tx, Ty, Tz, Rx, Ry, Rz, BoneLength
MASTER 0.000000 0.000000 0.000000 -90.000000 0.000000 0.000000 10.000000 
root 0.000000 0.000000 0.000000 0.000000 0.000000 0.000000 10.000000 
chest 0.000000 0.000000 0.000000 0.000000 0.000000 0.000000 10.000000 
L_mid_tent01 0.000000 0.000000 0.000000 0.000000 0.000000 0.000000 10.000000 
R_mid_tent01 0.000000 0.000000 0.000000 0.000000 0.000000 0.000000 10.000000 
spine01 0.000000 0.000000 0.000000 0.000000 0.000000 0.000000 10.000000 
Bip01_Neck 0.000000 0.000000 0.000000 0.000000 0.000000 0.000000 10.000000 
L_humerus 0.000000 0.000000 0.000000 0.000000 0.000000 0.000000 10.000000 
R_humerus 0.000000 0.000000 0.000000 0.000000 0.000000 0.000000 10.000000 
weapon_bone 0.000000 0.000000 0.000000 0.000000 0.000000 0.000000 10.000000 
Bip01_Head 0.000000 0.000000 0.000000 0.000000 0.000000 0.000000 10.000000 
eye_left_bone 0.000000 0.000000 0.000000 0.000000 0.000000 0.000000 10.000000 
eye_right_bone 0.000000 0.000000 0.000000 0.000000 0.000000 0.000000 10.000000 
L_forearm 0.000000 0.000000 0.000000 0.000000 0.000000 0.000000 10.000000 
L_front_hand 0.000000 0.000000 0.000000 0.000000 0.000000 0.000000 10.000000 
L_weapon_bone 0.000000 0.000000 0.000000 0.000000 0.000000 0.000000 10.000000 
L_front_hand01_01 0.000000 0.000000 0.000000 0.000000 0.000000 0.000000 10.000000 
L_front_hand02_01 0.000000 0.000000 0.000000 0.000000 0.000000 0.000000 10.000000 
L_front_hand03_01 0.000000 0.000000 0.000000 0.000000 0.000000 0.000000 10.000000 
L_front_hand01_02 0.000000 0.000000 0.000000 0.000000 0.000000 0.000000 10.000000 
L_front_hand02_02 0.000000 0.000000 0.000000 0.000000 0.000000 0.000000 10.000000 
L_front_hand03_02 0.000000 0.000000 0.000000 0.000000 0.000000 0.000000 10.000000 
R_forearm 0.000000 0.000000 0.000000 0.000000 0.000000 0.000000 10.000000 
R_front_hand 0.000000 0.000000 0.000000 0.000000 0.000000 0.000000 10.000000 
R_weapon_bone 0.000000 0.000000 0.000000 0.000000 0.000000 0.000000 10.000000 
R_front_hand01_01 0.000000 0.000000 0.000000 0.000000 0.000000 0.000000 10.000000 
R_front_hand02_01 0.000000 0.000000 0.000000 0.000000 0.000000 0.000000 10.000000 
R_front_hand03_01 0.000000 0.000000 0.000000 0.000000 0.000000 0.000000 10.000000 
R_front_hand01_02 0.000000 0.000000 0.000000 0.000000 0.000000 0.000000 10.000000 
R_front_hand02_02 0.000000 0.000000 0.000000 0.000000 0.000000 0.000000 10.000000 
R_front_hand03_02 0.000000 0.000000 0.000000 0.000000 0.000000 0.000000 10.000000 
null_rope01_connect 0.000000 0.000000 0.000000 0.000000 0.000000 0.000000 10.000000 
Rope1_Seg01 0.000000 0.000000 0.000000 0.000000 0.000000 0.000000 10.000000 
Rope1_Seg02 0.000000 0.000000 0.000000 0.000000 0.000000 0.000000 10.000000 
Rope1_Seg03 0.000000 0.000000 0.000000 0.000000 0.000000 0.000000 10.000000 
Rope1_Seg04 0.000000 0.000000 0.000000 0.000000 0.000000 0.000000 10.000000 
Rope1_Seg05 0.000000 0.000000 0.000000 0.000000 0.000000 0.000000 10.000000 
Rope1_Seg06 0.000000 0.000000 0.000000 0.000000 0.000000 0.000000 10.000000 
Rope1_Seg07 0.000000 0.000000 0.000000 0.000000 0.000000 0.000000 10.000000 
Rope1_Seg09 0.000000 0.000000 0.000000 0.000000 0.000000 0.000000 10.000000 
L_mid_hand01 0.000000 0.000000 0.000000 0.000000 0.000000 0.000000 10.000000 
L_mid_hand02 0.000000 0.000000 0.000000 0.000000 0.000000 0.000000 10.000000 
L_mid_hand03 0.000000 0.000000 0.000000 0.000000 0.000000 0.000000 10.000000 
null_rope02_connect 0.000000 0.000000 0.000000 0.000000 0.000000 0.000000 10.000000 
Rope2_Seg01 0.000000 0.000000 0.000000 0.000000 0.000000 0.000000 10.000000 
Rope2_Seg02 0.000000 0.000000 0.000000 0.000000 0.000000 0.000000 10.000000 
Rope2_Seg03 0.000000 0.000000 0.000000 0.000000 0.000000 0.000000 10.000000 
Rope2_Seg04 0.000000 0.000000 0.000000 0.000000 0.000000 0.000000 10.000000 
Rope2_Seg05 0.000000 0.000000 0.000000 0.000000 0.000000 0.000000 10.000000 
Rope2_Seg06 0.000000 0.000000 0.000000 0.000000 0.000000 0.000000 10.000000 
Rope2_Seg07 0.000000 0.000000 0.000000 0.000000 0.000000 0.000000 10.000000 
Rope2_Seg09 0.000000 0.000000 0.000000 0.000000 0.000000 0.000000 10.000000 
R_mid_hand01 0.000000 0.000000 0.000000 0.000000 0.000000 0.000000 10.000000 
R_mid_hand02 0.000000 0.000000 0.000000 0.000000 0.000000 0.000000 10.000000 
R_mid_hand03 0.000000 0.000000 0.000000 0.000000 0.000000 0.000000 10.000000 
spine02 0.000000 0.000000 0.000000 0.000000 0.000000 0.000000 10.000000 
spine03 0.000000 0.000000 0.000000 0.000000 0.000000 0.000000 10.000000 
pelvis 0.000000 0.000000 0.000000 0.000000 0.000000 0.000000 10.000000 
null_rope03_connect 0.000000 0.000000 0.000000 0.000000 0.000000 0.000000 10.000000 
null_rope04_connect 0.000000 0.000000 0.000000 0.000000 0.000000 0.000000 10.000000 
Rope3_Seg01 0.000000 0.000000 0.000000 0.000000 0.000000 0.000000 10.000000 
Rope3_Seg02 0.000000 0.000000 0.000000 0.000000 0.000000 0.000000 10.000000 
Rope3_Seg03 0.000000 0.000000 0.000000 0.000000 0.000000 0.000000 10.000000 
Rope3_Seg04 0.000000 0.000000 0.000000 0.000000 0.000000 0.000000 10.000000 
Rope3_Seg05 0.000000 0.000000 0.000000 0.000000 0.000000 0.000000 10.000000 
Rope3_Seg06 0.000000 0.000000 0.000000 0.000000 0.000000 0.000000 10.000000 
Rope3_Seg07 0.000000 0.000000 0.000000 0.000000 0.000000 0.000000 10.000000 
Rope3_Seg08 0.000000 0.000000 0.000000 0.000000 0.000000 0.000000 10.000000 
Rope3_Seg09 0.000000 0.000000 0.000000 0.000000 0.000000 0.000000 10.000000 
R_rear_hand01 0.000000 0.000000 0.000000 0.000000 0.000000 0.000000 10.000000 
R_rear_hand02 0.000000 0.000000 0.000000 0.000000 0.000000 0.000000 10.000000 
R_rear_hand03 0.000000 0.000000 0.000000 0.000000 0.000000 0.000000 10.000000 
Rope4_Seg01 0.000000 0.000000 0.000000 0.000000 0.000000 0.000000 10.000000 
Rope4_Seg02 0.000000 0.000000 0.000000 0.000000 0.000000 0.000000 10.000000 
Rope4_Seg03 0.000000 0.000000 0.000000 0.000000 0.000000 0.000000 10.000000 
Rope4_Seg04 0.000000 0.000000 0.000000 0.000000 0.000000 0.000000 10.000000 
Rope4_Seg05 0.000000 0.000000 0.000000 0.000000 0.000000 0.000000 10.000000 
Rope4_Seg06 0.000000 0.000000 0.000000 0.000000 0.000000 0.000000 10.000000 
Rope4_Seg07 0.000000 0.000000 0.000000 0.000000 0.000000 0.000000 10.000000 
Rope4_Seg08 0.000000 0.000000 0.000000 0.000000 0.000000 0.000000 10.000000 
Rope4_Seg09 0.000000 0.000000 0.000000 0.000000 0.000000 0.000000 10.000000 
L_rear_hand01 0.000000 0.000000 0.000000 0.000000 0.000000 0.000000 10.000000 
L_rear_hand02 0.000000 0.000000 0.000000 0.000000 0.000000 0.000000 10.000000 
L_rear_hand03 0.000000 0.000000 0.000000 0.000000 0.000000 0.000000 10.000000 
#Beginning of Data. Separated by tabs
#Fr	Tx	Ty	Tz	Rx	Ry	Rz	SF
[MASTER]
4 0.000000 0.000000 0.000000 0.001660 0.001660 0.001660 0.000000
5 0.000000 0.000000 0.000000 0.001660 0.001660 0.001660 0.000000
[root]
4 -21.120403 -9.379495 1460.049194 -86.817108 -12.687712 -95.417679 1460.232056
5 -24.028088 -17.303827 1467.434204 -84.155136 -13.450685 -98.633728 1467.732910
[chest]
4 -84.512650 -34.090519 0.000000 -1.980353 3.256558 158.378403 91.129311
5 -84.512650 -34.090519 0.000000 -2.038460 4.679788 154.924805 91.129311
[L_mid_tent01]
4 27.299126 22.179090 -249.918701 -0.948318 12.429466 65.449951 252.381683
5 27.299126 22.179087 -249.918701 4.641299 8.786102 82.425583 252.381683
[R_mid_tent01]
4 23.228794 24.509907 226.238495 168.984467 -6.161598 65.744164 228.744751
5 23.228794 24.509907 226.238495 164.226883 -4.936835 76.419678 228.744751
[spine01]
4 -0.361383 -0.195265 0.000000 0.002036 0.001171 30.174353 0.410763
5 -0.361383 -0.195265 0.000000 0.002062 0.001122 32.879829 0.410763
[Bip01_Neck]
4 165.484543 71.581718 0.000119 176.643677 -1.657967 43.431915 180.302734
5 165.484543 71.581718 0.000119 176.643677 -1.657967 43.431915 180.302734
[L_humerus]
4 -13.983130 -135.272980 -120.471481 -58.159451 84.789474 41.654461 181.680161
5 -13.983130 -135.272980 -120.471481 -147.595016 82.526512 -43.637859 181.680161
[R_humerus]
4 -13.983309 -135.273102 125.287651 92.036369 -81.241547 4.225796 184.909012
5 -13.983309 -135.273102 125.287651 138.521286 -77.885277 -41.986683 184.909012
[weapon_bone]
4 235.964890 -300.705902 0.000000 0.000000 -89.951546 -128.212341 382.234833
5 235.964890 -300.705902 0.000000 0.000000 -89.951546 -128.212341 382.234833
[Bip01_Head]
4 213.444199 185.715347 11.776944 7.784509 2.811666 -43.897686 283.173645
5 213.444199 185.715347 11.776943 9.722129 2.825867 -43.898129 283.173645
[eye_left_bone]
4 -24.626970 125.451866 -64.772606 0.000000 -90.000000 -99.840431 143.318359
5 -24.626970 125.451866 -64.772606 0.000000 -90.000000 -99.840431 143.318359
[eye_right_bone]
4 -24.626970 125.451866 64.327362 0.000000 -89.980217 80.156380 143.117676
5 -24.626970 125.451866 64.327362 0.000000 -89.965736 80.156380 143.117676
[L_forearm]
4 322.776093 0.000000 -0.000119 0.000396 -0.002314 -109.419968 322.776093
5 322.776093 0.000000 -0.000119 0.000396 -0.002314 -109.419975 322.776093
[L_front_hand]
4 241.149185 -0.042021 -3.300071 -178.667953 -1.835447 -27.422350 241.171753
5 241.149185 -0.042021 -3.300071 -178.667953 -1.835447 -27.422344 241.171753
[L_weapon_bone]
4 156.183838 0.000000 0.000000 0.000014 0.000007 0.000001 156.183838
5 156.183838 0.000000 0.000000 0.000014 0.000007 0.000001 156.183838
[L_front_hand01_01]
4 86.095154 20.947098 -0.655860 -0.365371 -0.478091 75.092094 88.609184
5 86.095154 20.947098 -0.655860 -0.358124 -0.483585 74.301987 88.609184
[L_front_hand02_01]
4 86.935165 -11.437475 24.513514 153.946487 -59.758568 -60.843468 91.046425
5 86.935165 -11.437475 24.513514 152.741364 -59.405788 -59.444736 91.046425
[L_front_hand03_01]
4 86.637497 -14.123976 -20.424902 -153.504349 57.989803 -62.217342 90.126129
5 86.637497 -14.123976 -20.424902 -152.381119 57.628048 -60.890831 90.126129
[L_front_hand01_02]
4 71.020905 -0.000179 0.000030 0.000320 -0.002325 -105.648979 71.020905
5 71.020905 -0.000179 0.000030 0.000319 -0.002325 -105.611748 71.020905
[L_front_hand02_02]
4 71.020927 -0.000119 0.000060 0.000320 -0.002325 -105.648979 71.020927
5 71.020927 -0.000119 0.000060 0.000319 -0.002325 -105.611748 71.020927
[L_front_hand03_02]
4 71.020905 -0.000060 0.000060 0.000320 -0.002325 -105.648979 71.020905
5 71.020905 -0.000060 0.000060 0.000319 -0.002325 -105.611748 71.020905
[R_forearm]
4 322.776428 -0.000060 0.000030 0.202103 0.065158 -108.062820 322.776428
5 322.776428 -0.000060 0.000030 0.202103 0.065158 -108.062805 322.776428
[R_front_hand]
4 238.847015 -0.006795 2.210259 -2.635298 -10.645461 -26.312506 238.857239
5 238.847015 -0.006795 2.210259 -2.635298 -10.645461 -26.312506 238.857239
[R_weapon_bone]
4 155.664093 0.002503 -0.000030 0.003487 0.001180 -90.988930 155.664078
5 155.664093 0.002503 -0.000030 0.003487 0.001180 -90.988930 155.664078
[R_front_hand01_01]
4 87.624611 14.231146 22.918642 -154.238968 -59.839840 61.284889 91.683487
5 87.624611 14.231146 22.918642 -153.171539 -59.529896 60.052429 91.683487
[R_front_hand02_01]
4 89.356956 14.367283 -19.491137 154.231567 58.196690 63.311184 92.579636
5 89.356956 14.367283 -19.491137 153.232147 57.885738 62.134083 92.579636
[R_front_hand03_01]
4 87.286232 -22.307278 -0.143439 0.161230 -0.423521 -75.517479 90.091743
5 87.286232 -22.307278 -0.143439 0.154710 -0.427505 -74.818459 90.091743
[R_front_hand01_02]
4 71.020905 0.000060 0.000119 0.002323 -0.000334 106.381714 71.020905
5 71.020905 0.000060 0.000119 0.002323 -0.000334 106.381714 71.020905
[R_front_hand02_02]
4 71.020844 -0.000030 -0.000119 0.002323 -0.000334 106.381714 71.020836
5 71.020844 -0.000030 -0.000119 0.002323 -0.000334 106.381714 71.020836
[R_front_hand03_02]
4 71.020905 0.000000 0.000030 0.002323 -0.000334 106.381714 71.020905
5 71.020905 0.000000 0.000030 0.002323 -0.000334 106.381714 71.020905
[null_rope01_connect]
4 328.732483 0.000000 -0.000238 -122.946480 -76.371422 159.610687 328.732483
5 328.732483 0.000000 -0.000238 -93.337326 -75.220428 114.357254 328.732483
[Rope1_Seg01]
4 -0.000036 0.000034 0.000137 108.164932 11.246286 -148.350830 0.000146
5 -0.000036 0.000033 0.000132 143.368179 35.652248 -162.521942 0.000141
[Rope1_Seg02]
4 139.999863 -0.000179 0.000000 -13.012886 4.625658 7.675848 139.999863
5 139.999863 -0.000179 0.000000 -23.069269 15.781804 18.458033 139.999863
[Rope1_Seg03]
4 139.999924 0.000060 -0.000060 28.062084 -38.909489 -6.963407 139.999924
5 139.999924 0.000060 -0.000060 -0.367362 -36.449776 20.553360 139.999924
[Rope1_Seg04]
4 139.999924 -0.000060 -0.000119 0.236925 -37.895599 10.818455 139.999924
5 139.999924 -0.000060 -0.000119 -6.386530 -33.115131 9.865801 139.999924
[Rope1_Seg05]
4 139.999832 0.000119 -0.000060 -1.125366 -8.933252 2.992064 139.999832
5 139.999832 0.000119 -0.000060 -1.895082 -6.260732 1.710382 139.999832
[Rope1_Seg06]
4 139.999954 0.000119 -0.000060 -0.321695 -2.063969 0.650505 139.999954
5 139.999954 0.000119 -0.000060 -1.173601 -3.279906 0.782412 139.999954
[Rope1_Seg07]
4 139.999985 0.000060 0.000000 0.006603 0.001656 0.001661 139.999985
5 139.999985 0.000060 0.000000 -0.732165 -1.875219 0.409357 139.999985
[Rope1_Seg09]
4 121.602913 0.000119 -0.000089 -89.793175 -1.359789 0.847147 121.602913
5 121.602913 0.000119 -0.000089 -89.793175 -1.359789 0.847147 121.602913
[L_mid_hand01]
4 103.859421 1.038730 8.195221 119.391953 -59.659550 -26.459229 104.187431
5 103.859421 1.038730 8.195221 115.408714 -54.701881 -21.722248 104.187431
[L_mid_hand02]
4 105.572853 -4.139662 -10.864139 -160.502609 40.861904 -60.979630 106.211075
5 105.572853 -4.139662 -10.864139 -156.174301 38.799179 -54.227295 106.211075
[L_mid_hand03]
4 104.641464 17.579376 -3.913581 -8.971709 16.553080 64.913109 106.179977
5 104.641464 17.579376 -3.913581 -10.556284 15.605946 59.190216 106.179977
[null_rope02_connect]
4 328.732849 0.000179 -0.000119 -99.380798 82.137405 42.673061 328.732849
5 328.732849 0.000179 -0.000119 -106.088699 80.649574 45.156307 328.732849
[Rope2_Seg01]
4 0.000053 0.000112 0.000000 83.160324 -24.777981 -102.346016 0.000124
5 0.000046 0.000111 0.000000 87.750916 -23.223824 -110.494812 0.000120
[Rope2_Seg02]
4 139.999741 -0.000060 -0.000119 -0.693208 8.221378 -2.284601 139.999756
5 139.999741 -0.000060 -0.000119 -0.016919 6.442159 -3.675422 139.999756
[Rope2_Seg03]
4 140.000107 0.000030 0.000000 157.524750 74.725494 -69.768738 140.000107
5 140.000107 0.000030 0.000000 6.723005 51.089813 -44.802528 140.000107
[Rope2_Seg04]
4 139.999802 0.000000 -0.000060 -26.074461 -33.316563 42.106525 139.999802
5 139.999802 0.000000 -0.000060 121.461266 31.087463 -66.446388 139.999802
[Rope2_Seg05]
4 139.999985 -0.000060 0.000119 -0.302109 -2.946017 2.191339 139.999985
5 139.999985 -0.000060 0.000119 0.110537 -5.131053 1.769112 139.999985
[Rope2_Seg06]
4 139.999893 -0.000030 -0.000119 -0.277008 -1.191498 1.587296 139.999893
5 139.999893 -0.000030 -0.000119 -0.200466 -1.821375 1.201875 139.999893
[Rope2_Seg07]
4 139.999893 0.000060 -0.000060 -0.308792 -0.602253 1.660174 139.999893
5 139.999893 0.000060 -0.000060 -0.320541 -0.974173 1.245825 139.999893
[Rope2_Seg09]
4 121.338966 0.000089 -0.000060 33.793236 -1.359788 -0.847141 121.338966
5 121.338966 0.000089 -0.000060 33.793236 -1.359788 -0.847141 121.338966
[R_mid_hand01]
4 104.680779 11.144459 -10.335981 -20.399712 43.830379 64.493820 105.778534
5 104.680779 11.144459 -10.335981 -22.984858 42.734222 60.718655 105.778534
[R_mid_hand02]
4 104.070427 2.443552 8.231699 55.242668 -64.206009 32.532043 104.424065
5 104.070427 2.443552 8.231699 58.419544 -61.729733 28.969135 104.424065
[R_mid_hand03]
4 106.028137 -11.221827 -5.996406 -175.861618 15.275426 -71.940247 106.788818
5 106.028137 -11.221827 -5.996406 -175.069138 15.041782 -68.893341 106.788818
[spine02]
4 129.756927 0.001550 0.000119 0.360061 -4.044797 -12.915058 129.756927
5 129.756927 0.001550 0.000119 0.360061 -4.044797 -12.915058 129.756927
[spine03]
4 78.614075 0.081497 -4.899000 1.896495 3.831287 16.473045 78.766609
5 78.614075 0.081502 -4.898999 1.896495 3.831288 16.473045 78.766609
[pelvis]
4 169.435242 0.051022 0.000000 -0.060465 -0.180225 14.087929 169.435257
5 169.435242 0.051022 0.000000 -0.060465 -0.180225 14.087930 169.435257
[null_rope03_connect]
4 -1.257226 -2.466202 137.391083 -48.424702 -83.608795 103.495499 137.418976
5 -1.257226 -2.466202 137.391083 -47.086681 -79.972366 100.510330 137.418976
[null_rope04_connect]
4 -1.259640 -2.480268 -137.844437 -48.424702 -83.608795 103.495499 137.872513
5 -1.259640 -2.480268 -137.844437 -47.086681 -79.972366 100.510330 137.872513
[Rope3_Seg01]
4 0.000010 0.000034 -0.000137 -141.052032 -22.401289 -49.648617 0.000142
5 0.000010 0.000033 -0.000132 -133.393326 -18.330746 -70.641357 0.000137
[Rope3_Seg02]
4 139.999924 -0.000119 0.000060 15.473396 -23.214390 3.077810 139.999924
5 139.999924 -0.000119 0.000060 19.541079 -33.958569 -22.549509 139.999924
[Rope3_Seg03]
4 139.999924 -0.000119 0.000119 12.053253 -13.960513 9.020930 139.999924
5 139.999924 -0.000119 0.000119 21.579815 -19.474989 -4.367480 139.999924
[Rope3_Seg04]
4 139.999924 0.000119 0.000000 8.221507 -10.169589 4.372928 139.999924
5 139.999924 0.000119 0.000000 14.123753 -9.273896 0.130270 139.999924
[Rope3_Seg05]
4 139.999924 -0.000238 0.000060 24.545609 -29.080196 7.017015 139.999924
5 139.999924 -0.000238 0.000060 29.493748 -15.078640 1.158319 139.999924
[Rope3_Seg06]
4 139.999893 -0.000119 -0.000060 19.881189 -25.761351 25.125181 139.999893
5 139.999893 -0.000119 -0.000060 41.267769 -21.401539 14.322268 139.999893
[Rope3_Seg07]
4 139.999771 0.000060 -0.000119 5.505620 -5.622696 13.865637 139.999771
5 139.999771 0.000060 -0.000119 12.569671 -3.542935 16.900560 139.999771
[Rope3_Seg08]
4 139.999985 -0.000060 0.000000 1.104821 -0.571355 1.969710 139.999985
5 139.999985 -0.000060 0.000000 4.486331 0.189255 9.771373 139.999985
[Rope3_Seg09]
4 90.185997 -0.000179 -0.000060 89.793228 -1.359877 -0.847183 90.185997
5 90.185997 -0.000179 -0.000060 89.793228 -1.359877 -0.847183 90.185997
[R_rear_hand01]
4 103.366196 -6.073594 -10.757982 -175.114853 24.208797 -67.632149 104.101845
5 103.366196 -6.073594 -10.757982 -173.471771 23.840069 -63.595013 104.101845
[R_rear_hand02]
4 100.509819 12.039542 -7.992327 -16.923939 35.395069 65.303368 101.543350
5 100.509819 12.039542 -7.992327 -19.370905 34.238888 61.013897 101.543350
[R_rear_hand03]
4 101.539970 5.215704 5.435467 75.730560 -66.314209 16.974052 101.819031
5 101.539970 5.215704 5.435467 77.523743 -62.710114 14.990737 101.819031
[Rope4_Seg01]
4 0.000015 0.000069 -0.000160 48.023243 -7.684892 -95.768196 0.000175
5 0.000014 0.000066 -0.000163 46.247292 -7.846075 -85.803864 0.000176
[Rope4_Seg02]
4 139.999985 0.000060 0.000119 2.320277 -22.472486 -29.433308 139.999985
5 139.999985 0.000060 0.000119 11.089969 -37.665562 -42.907993 139.999985
[Rope4_Seg03]
4 139.999924 0.000000 -0.000238 -6.042830 -13.846996 -16.616457 139.999924
5 139.999924 0.000000 -0.000238 -10.441264 -17.722105 -18.043032 139.999924
[Rope4_Seg04]
4 139.999985 0.000000 0.000119 -6.480239 -3.649189 -7.389998 139.999985
5 139.999985 0.000000 0.000119 -8.417317 -3.553892 -5.797464 139.999985
[Rope4_Seg05]
4 139.999802 -0.000060 -0.000119 -14.905252 -0.302204 -10.793536 139.999802
5 139.999802 -0.000060 -0.000119 -14.447373 -2.130045 -6.568315 139.999802
[Rope4_Seg06]
4 139.999924 0.000000 0.000060 -44.092289 8.282980 -29.184637 139.999924
5 139.999924 0.000000 0.000060 -49.041206 -0.323853 -16.180910 139.999924
[Rope4_Seg07]
4 139.999802 0.000000 0.000000 -25.955719 27.968985 -20.865591 139.999802
5 139.999802 0.000000 0.000000 -44.567532 22.246109 -21.751183 139.999802
[Rope4_Seg08]
4 139.999924 0.000000 0.000119 -5.078257 14.182182 -3.389434 139.999924
5 139.999924 0.000000 0.000119 -8.357730 20.552069 -0.906406 139.999924
[Rope4_Seg09]
4 90.185791 0.000060 0.000060 -135.617828 2.228885 0.850567 90.185791
5 90.185791 0.000060 0.000060 -135.617828 2.228885 0.850567 90.185791
[L_rear_hand01]
4 101.696655 -8.392275 -7.654577 -23.837845 -31.499460 127.199913 102.329041
5 101.696655 -8.392275 -7.654577 -28.015862 -27.942142 135.607529 102.329041
[L_rear_hand02]
4 102.726799 -1.568258 5.773216 79.944244 55.427822 167.828537 102.900848
5 102.726799 -1.568258 5.773216 81.577332 47.415264 169.913025 102.900848
[L_rear_hand03]
4 104.552910 9.721220 -10.420293 -170.300720 -22.790039 -124.406273 105.519653
5 104.552910 9.721220 -10.420293 -167.078079 -21.194330 -132.993347 105.519653
